<svg id="visual" viewBox="0 0 960 540" width="960" height="540" xmlns="http://www.w3.org/2000/svg" xmlns:xlink="http://www.w3.org/1999/xlink" version="1.1"><rect x="0" y="0" width="960" height="540" fill="#252525"></rect><path d="M0 430L22.8 429.5C45.7 429 91.3 428 137 422.7C182.7 417.3 228.3 407.7 274 394.8C319.7 382 365.3 366 411.2 375.7C457 385.3 503 420.7 548.8 426.2C594.7 431.7 640.3 407.3 686 390C731.7 372.7 777.3 362.3 823 370C868.7 377.7 914.3 403.3 937.2 416.2L960 429L960 541L937.2 541C914.3 541 868.7 541 823 541C777.3 541 731.7 541 686 541C640.3 541 594.7 541 548.8 541C503 541 457 541 411.2 541C365.3 541 319.7 541 274 541C228.3 541 182.7 541 137 541C91.3 541 45.7 541 22.8 541L0 541Z" fill="#AC8E6A" stroke-linecap="round" stroke-linejoin="miter"></path></svg>